<?xml version="1.0" encoding="UTF-8" standalone="no"?>
<svg
   width="743"
   height="640"
   viewBox="0 0 743 640"
   fill="none"
   version="1.1"
   id="svg4"
   sodipodi:docname="shinyds.svg"
   inkscape:version="1.4.4 (dcaf3e7d9e, 2026-05-05)"
   xmlns:inkscape="http://www.inkscape.org/namespaces/inkscape"
   xmlns:sodipodi="http://sodipodi.sourceforge.net/DTD/sodipodi-0.dtd"
   xmlns="http://www.w3.org/2000/svg"
   xmlns:svg="http://www.w3.org/2000/svg">
  <defs
     id="defs4" />
  <sodipodi:namedview
     id="namedview4"
     pagecolor="#ffffff"
     bordercolor="#000000"
     borderopacity="0.25"
     inkscape:showpageshadow="2"
     inkscape:pageopacity="0.0"
     inkscape:pagecheckerboard="0"
     inkscape:deskcolor="#d1d1d1"
     showguides="true"
     inkscape:zoom="0.82368775"
     inkscape:cx="371.5"
     inkscape:cy="320.5098"
     inkscape:window-width="1536"
     inkscape:window-height="783"
     inkscape:window-x="0"
     inkscape:window-y="0"
     inkscape:window-maximized="1"
     inkscape:current-layer="svg4" />
  <path
     sodipodi:type="star"
     style="fill:#ffffff;stroke:#000080;stroke-width:9.42744613;stroke-dasharray:none"
     id="path5"
     inkscape:flatsided="true"
     sodipodi:sides="6"
     sodipodi:cx="178.46568"
     sodipodi:cy="105.62255"
     sodipodi:r1="298.49149"
     sodipodi:r2="149.24574"
     sodipodi:arg1="0.6207223"
     sodipodi:arg2="1.1443211"
     inkscape:rounded="0"
     inkscape:randomized="0"
     d="M 421.27614,279.23203 149.52069,402.70731 -93.289761,229.09784 -64.344772,-67.986925 207.41067,-191.46221 450.22113,-17.852733 Z"
     inkscape:transform-center-x="21.521279"
     inkscape:transform-center-y="-63.726517"
     transform="matrix(1.0559068,-0.10106732,0.10106732,1.0559068,172.38188,226.50948)" />
  <rect
     width="743"
     height="640"
     id="rect1" />
  <g
     id="g5"
     transform="translate(0.50606314,5.5625745e-5)">
    <path
       d="m 508.012,207.349 c 5.055,-5.056 13.252,-5.056 18.307,0 l 103.498,103.497 c 5.055,5.056 5.055,13.252 0,18.308 L 526.319,432.651 c -5.055,5.055 -13.252,5.055 -18.307,0 L 404.515,329.154 c -5.056,-5.056 -5.056,-13.252 0,-18.308 z"
       fill="#1e98f5"
       id="path1" />
    <rect
       x="371"
       y="344.36099"
       width="172.258"
       height="172.258"
       rx="12.9455"
       transform="rotate(45,371,344.361)"
       fill="#68707c"
       id="rect2" />
    <rect
       x="224.834"
       y="198.19501"
       width="172.258"
       height="172.258"
       rx="12.9455"
       transform="rotate(45,224.834,198.195)"
       fill="#e5aa20"
       id="rect3" />
    <rect
       x="371"
       y="52.029301"
       width="172.258"
       height="172.258"
       rx="12.9455"
       transform="rotate(45,371,52.0293)"
       fill="#f45f63"
       id="rect4" />
  </g>
</svg>
